<svg xmlns="http://www.w3.org/2000/svg" width="111" height="104"><g fill="none" fill-rule="evenodd" stroke="#F4769A" stroke-width="2"><path d="M91.264 69.954a6.816 6.816 0 0 0 5.032 2.044 6.828 6.828 0 0 0 4.926-2.298c2.434-2.735 2.36-6.922-.168-9.567L76 34"/><path stroke-linecap="square" d="M66 85l3.05 3.222C70.3 89.54 71 91.329 71 93.193c0 1.865-.701 3.654-1.95 4.972A6.554 6.554 0 0 1 66.014 100m20.023-35l6.883 6.883a7.094 7.094 0 0 1 0 10.037 7.098 7.098 0 0 1-10.04 0L76 75.04M80.941 81A7.03 7.03 0 0 1 71 90.943M14.55 73.05l8-8a2.844 2.844 0 0 1 4.022 0l5.877 5.878a2.844 2.844 0 0 1 0 4.022l-7.999 8a2.844 2.844 0 0 1-4.022 0l-5.877-5.878a2.844 2.844 0 0 1 0-4.022zm21.84 18.66l7.32-7.32a2.824 2.824 0 0 1 3.994 0l5.906 5.906a2.824 2.824 0 0 1 0 3.994l-7.32 7.32a2.824 2.824 0 0 1-3.994 0l-5.906-5.906a2.824 2.824 0 0 1 0-3.994z"/><path stroke-linecap="square" d="M18.956 68.9l-1.064 1.064a6.968 6.968 0 0 1-10.087-.253 6.958 6.958 0 0 1 .165-9.527l1.064-1.088a6.982 6.982 0 0 1 9.805-.167 6.967 6.967 0 0 1 .117 9.972zM101.35 45v-8.603l7.65-7.78L82.374 2l-4.763 4.764H65.652a22.616 22.616 0 0 0-15.898 6.526L32.759 30.957a6.28 6.28 0 0 0-.29 8.396 6.284 6.284 0 0 0 8.322 1.173l18.104-11.662a16.449 16.449 0 0 0 24.895-.254M9.688 45v-8.603L2 28.617 28.758 2l4.786 4.764H43M26.244 82.357l6.613-6.613a2.824 2.824 0 0 1 3.993 0l5.906 5.906a2.824 2.824 0 0 1 0 3.993l-6.613 6.613a2.824 2.824 0 0 1-3.993 0l-5.906-5.906a2.824 2.824 0 0 1 0-3.993z"/></g></svg>