<svg xmlns="http://www.w3.org/2000/svg" width="111" height="106"><g fill="none" fill-rule="evenodd" stroke="#F4769A" stroke-linecap="square" stroke-width="2"><path d="M95.111 16H110v72H43m-27.143 0H1V16h52"/><path d="M92.53 51H55.47C54.108 51 53 49.88 53 48.5v-45C53 2.12 54.107 1 55.47 1h37.06C93.892 1 95 2.12 95 3.5v45c0 1.38-1.107 2.5-2.47 2.5zm-51.985 54h-22.09C17.1 105 16 103.88 16 102.5v-35c0-1.38 1.1-2.5 2.455-2.5h22.09C41.9 65 43 66.12 43 67.5v35c0 1.38-1.1 2.5-2.455 2.5zM53 100h15m-40-7h2m40-55h7"/></g></svg>